<?xml version="1.0" encoding="utf-8"?>
<!-- Generator: Adobe Illustrator 24.2.3, SVG Export Plug-In . SVG Version: 6.00 Build 0)  -->
<svg version="1.1" id="Layer_1" xmlns="http://www.w3.org/2000/svg" xmlns:xlink="http://www.w3.org/1999/xlink" x="0px" y="0px"
	 viewBox="0 0 24 49" style="enable-background:new 0 0 24 49;" xml:space="preserve">
<path d="M1.57,25.7c0.78,0.03,1.69,0.12,2.74,0.34c2.7,0.57,6.72,1.99,10.62,5.75c8.37,8.08,6.12,15.2,6.04,15.48l1.08,0.37
	c0.11-0.31,2.59-8.05-6.32-16.65c-3.87-3.73-7.83-5.35-10.9-6c2.96-0.94,6.8-2.85,10.87-6.8c9.22-8.91,6.43-16.39,6.32-16.71
	L20.96,1.9c0.11,0.28,2.62,7.14-6.04,15.48c-5.48,5.31-10.56,6.77-13.36,7.15V25.7z"/>
</svg>
